Coordinates
version=1
nRows=20
nColumns=63
inDegrees=yes

Units are S.I. units (second, meters, Newtons, ...)
If the header above contains a line with 'inDegrees', this indicates whether rotational values are in degrees (yes) or radians (no).

endheader
time	pelvis_tilt	pelvis_list	pelvis_rotation	pelvis_tx	pelvis_ty	pelvis_tz	hip_flexion_r	hip_adduction_r	hip_rotation_r	knee_angle_r	knee_angle_r_beta	ankle_angle_r	subtalar_angle_r	mtp_angle_r	hip_flexion_l	hip_adduction_l	hip_rotation_l	knee_angle_l	knee_angle_l_beta	ankle_angle_l	subtalar_angle_l	mtp_angle_l	L5_S1_Flex_Ext	L5_S1_Lat_Bending	L5_S1_axial_rotation	L4_L5_Flex_Ext	L4_L5_Lat_Bending	L4_L5_axial_rotation	L3_L4_Flex_Ext	L3_L4_Lat_Bending	L3_L4_axial_rotation	L2_L3_Flex_Ext	L2_L3_Lat_Bending	L2_L3_axial_rotation	L1_L2_Flex_Ext	L1_L2_Lat_Bending	L1_L2_axial_rotation	L1_T12_Flex_Ext	L1_T12_Lat_Bending	L1_T12_axial_rotation	Abs_r3	Abs_r2	Abs_r1	Abs_t1	Abs_t2	neck_flexion	neck_bending	neck_rotation	arm_flex_r	arm_add_r	arm_rot_r	elbow_flex_r	pro_sup_r	wrist_flex_r	wrist_dev_r	arm_flex_l	arm_add_l	arm_rot_l	elbow_flex_l	pro_sup_l	wrist_flex_l	wrist_dev_l
3.406780	-4.428792	-4.899194	72.954683	0.193366	0.883319	0.548496	12.702742	3.131389	0.192445	18.017966	0.314473	40.224008	-0.814065	0.000000	9.350368	-0.949298	-7.580107	13.521627	0.235997	41.236288	10.869511	0.000000	0.388973	0.242632	0.302186	0.722361	0.322700	0.321073	0.639044	0.589935	0.321073	0.444557	0.589935	0.264413	0.361200	0.494775	0.245526	0.222259	0.375837	0.226640	2.778394	2.744699	1.680668	0.000000	0.000000	28.051443	-2.020562	-6.701384	11.070490	-26.854650	76.515445	18.312526	36.716523	-7.086821	-2.069150	17.567574	-17.691485	83.564255	17.221801	37.185257	1.637094	-3.406774
3.423729	-4.397753	-4.948177	73.061252	0.193078	0.883182	0.547924	12.870922	3.092865	-0.236498	18.227479	0.318130	40.345278	-0.139275	0.000000	9.348622	-0.830802	-6.520390	13.180944	0.230051	41.354998	10.173134	0.000000	0.399415	0.260703	0.280920	0.741754	0.346735	0.298478	0.656200	0.633873	0.298478	0.456492	0.633873	0.245805	0.370897	0.531626	0.228248	0.228226	0.403829	0.210690	2.852984	2.949124	1.562394	0.000000	0.000000	28.064764	-2.195257	-6.215697	11.718679	-26.115823	76.653353	18.512895	41.882528	-7.827124	-3.233396	18.629923	-16.689515	81.186443	17.983638	41.653079	0.565655	-3.427571
3.440678	-4.360439	-5.040608	73.107810	0.192822	0.883067	0.547286	13.120371	3.062793	-0.709084	18.423470	0.321550	40.603232	0.792782	0.000000	9.366808	-0.729665	-5.417908	12.816792	0.223695	41.471065	9.371339	0.000000	0.415131	0.281061	0.275393	0.770941	0.373811	0.292605	0.682019	0.683371	0.292605	0.474454	0.683371	0.240969	0.385491	0.573139	0.223757	0.237206	0.435363	0.206545	2.965242	3.179417	1.531653	0.000000	0.000000	28.080692	-2.522568	-5.981899	12.444304	-25.204048	77.539150	18.655580	46.249871	-8.420263	-4.500649	19.701097	-15.450989	79.551288	18.604973	45.956590	-0.492795	-3.560114
3.457627	-4.297208	-5.168433	73.076719	0.192584	0.883013	0.546604	13.427057	3.066439	-1.164662	18.589338	0.324445	40.969458	1.890285	0.000000	9.393605	-0.669609	-4.346989	12.454602	0.217374	41.590051	8.496524	0.000000	0.433925	0.305766	0.289538	0.805843	0.406668	0.307634	0.712896	0.743439	0.307634	0.495933	0.743439	0.253345	0.402943	0.623517	0.235249	0.247945	0.473631	0.217153	3.099486	3.458882	1.610322	0.000000	0.000000	28.098147	-2.977346	-5.984703	13.235028	-24.155749	78.929346	18.775039	49.656752	-8.790722	-5.698214	20.780263	-13.998415	78.013890	19.224717	50.171736	-1.554834	-3.759643
3.474576	-4.208620	-5.327033	72.967805	0.192389	0.883039	0.545906	13.769103	3.107068	-1.580009	18.707763	0.326512	41.410662	3.096087	0.000000	9.423253	-0.655112	-3.346323	12.107766	0.211320	41.691993	7.568588	0.000000	0.455484	0.333946	0.321642	0.845879	0.444148	0.341745	0.748314	0.811956	0.341745	0.520572	0.811956	0.281437	0.422962	0.680982	0.261334	0.260263	0.517282	0.241232	3.253476	3.777662	1.788877	0.000000	0.000000	28.114811	-3.514572	-6.197474	14.059274	-22.967508	80.433088	18.879975	51.978097	-8.886052	-6.659698	21.848773	-12.393573	76.466299	19.925827	54.197704	-2.649194	-3.994324
3.491525	-4.096493	-5.498949	72.794249	0.192250	0.883165	0.545197	14.105756	3.181652	-1.941329	18.766308	0.327534	41.885614	4.338929	0.000000	9.436998	-0.680325	-2.437233	11.785794	0.205701	41.758546	6.598071	0.000000	0.477989	0.364130	0.364923	0.887674	0.484293	0.387730	0.785288	0.885346	0.387730	0.546294	0.885346	0.319307	0.443861	0.742534	0.296500	0.273123	0.564037	0.273692	3.414229	4.119112	2.029590	0.000000	0.000000	28.129657	-4.081036	-6.579639	14.863817	-21.651030	81.554215	19.025270	53.189589	-8.663724	-7.300233	22.878125	-10.684997	75.026173	20.710835	57.883882	-3.694169	-4.202144
3.508475	-3.969760	-5.665519	72.590219	0.192147	0.883418	0.544468	14.390892	3.266666	-2.317395	18.748524	0.327223	42.357979	5.634062	0.000000	9.413344	-0.728578	-1.611871	11.481867	0.200396	41.757603	5.598157	0.000000	0.499973	0.393775	0.407570	0.928501	0.523721	0.433044	0.821406	0.957426	0.433044	0.571420	0.957426	0.356624	0.464275	0.802987	0.331151	0.285685	0.609958	0.305678	3.571261	4.454466	2.266784	0.000000	0.000000	28.141384	-4.623315	-7.121745	15.656108	-20.232269	82.318418	19.232453	52.912317	-7.910631	-7.650517	23.852835	-8.900969	74.161902	21.530143	60.936030	-4.499359	-4.375107
3.525424	-3.843241	-5.830894	72.332333	0.192177	0.883783	0.543724	14.615916	3.361986	-2.675175	18.652230	0.325543	42.779538	6.935488	0.000000	9.356566	-0.797126	-0.912477	11.207896	0.195615	41.692256	4.590118	0.000000	0.524010	0.420641	0.452265	0.973140	0.559453	0.480532	0.860897	1.022747	0.480532	0.598892	1.022747	0.395732	0.486596	0.857771	0.367465	0.299420	0.651573	0.339199	3.742954	4.758376	2.515363	0.000000	0.000000	28.145042	-5.088797	-7.787236	16.325697	-18.755492	82.420362	19.666670	51.099553	-6.878506	-7.737384	24.719524	-7.072483	74.002759	22.336107	63.213948	-4.970428	-4.503930
3.542373	-3.721912	-5.960998	72.125101	0.192231	0.884295	0.542974	14.744765	3.454209	-2.979460	18.502320	0.322926	43.128583	8.033655	0.000000	9.252844	-0.868339	-0.374764	10.970667	0.191474	41.560415	3.753231	0.000000	0.545007	0.442379	0.477074	1.012132	0.588364	0.506892	0.895391	1.075600	0.506892	0.622888	1.075600	0.417440	0.506093	0.902099	0.387623	0.311417	0.685245	0.357806	3.892927	5.004276	2.653345	0.000000	0.000000	28.148712	-5.431194	-8.487200	16.881174	-17.317566	82.021761	20.481552	48.152060	-5.743660	-7.611764	25.522242	-5.293070	74.940461	23.146243	64.231725	-5.038648	-4.804015
3.559322	-3.597295	-6.056354	71.941412	0.192335	0.884961	0.542224	14.766152	3.554100	-3.233357	18.290010	0.319221	43.384756	8.961120	0.000000	9.092546	-0.945145	0.066862	10.759206	0.187784	41.363489	2.980834	0.000000	0.562793	0.459925	0.490627	1.045163	0.611701	0.521291	0.924613	1.118263	0.521291	0.643216	1.118263	0.429298	0.522610	0.937880	0.398634	0.321580	0.712424	0.367970	4.019975	5.202768	2.728719	0.000000	0.000000	28.149604	-5.691733	-9.297805	17.325490	-15.962324	81.387666	21.636487	44.466444	-4.678539	-7.348950	26.206122	-3.553157	77.006351	23.845698	63.988861	-4.601617	-5.249279
3.576271	-3.456881	-6.104231	71.803747	0.192431	0.885791	0.541507	14.670628	3.673280	-3.406102	18.028497	0.314657	43.536258	9.634713	0.000000	8.877794	-1.043361	0.325412	10.587052	0.184779	41.142113	2.421461	0.000000	0.574547	0.475745	0.492361	1.066991	0.632741	0.523134	0.943923	1.156727	0.523134	0.656650	1.156727	0.430816	0.533524	0.970140	0.400044	0.328296	0.736929	0.369271	4.103930	5.381726	2.738367	0.000000	0.000000	28.148496	-5.834390	-10.058480	17.689809	-14.743380	80.770005	23.132046	40.093619	-3.917677	-6.909475	26.840238	-1.887999	80.500457	24.410960	61.988223	-3.652433	-5.832232
3.593220	-3.328775	-6.126629	71.726273	0.192594	0.886648	0.540756	14.482640	3.795386	-3.515567	17.715291	0.309190	43.617902	10.073738	0.000000	8.645905	-1.136667	0.484406	10.450761	0.182400	40.928645	2.010290	0.000000	0.585257	0.486973	0.469373	1.086880	0.647674	0.498709	0.961518	1.184026	0.498709	0.668890	1.184026	0.410702	0.543469	0.993035	0.381366	0.334416	0.754321	0.352030	4.180430	5.508736	2.610513	0.000000	0.000000	28.150118	-5.803327	-10.666016	17.957263	-13.629784	79.847432	24.928117	35.662246	-3.491541	-6.020196	26.720948	-0.682977	79.735331	25.846046	63.082021	-2.733860	-5.376894
3.610169	-3.187585	-6.112948	71.716147	0.192722	0.887588	0.539980	14.181772	3.946676	-3.458699	17.337286	0.302593	43.592532	10.137581	0.000000	8.397594	-1.261644	0.371626	10.370844	0.181005	40.774670	1.986964	0.000000	0.592417	0.498739	0.435263	1.100178	0.663323	0.462467	0.973282	1.212635	0.462467	0.677074	1.212635	0.380855	0.550119	1.017029	0.353651	0.338507	0.772547	0.326447	4.231577	5.641838	2.420802	0.000000	0.000000	28.152019	-5.687861	-11.074398	18.107744	-12.652877	78.861996	26.921486	30.839755	-3.233496	-4.719730	26.349008	0.273711	78.443313	27.476887	63.894413	-1.576634	-4.491582
3.627119	-3.033292	-6.067567	71.776694	0.192765	0.888595	0.539171	13.770462	4.097876	-3.416711	16.887890	0.294749	43.497707	10.086649	0.000000	8.138963	-1.398508	0.140786	10.332564	0.180337	40.658537	2.171580	0.000000	0.596259	0.512546	0.389143	1.107313	0.681687	0.413465	0.979594	1.246206	0.413465	0.681464	1.246206	0.340500	0.553686	1.045185	0.316179	0.340702	0.793935	0.291858	4.259018	5.798028	2.164299	0.000000	0.000000	28.155175	-5.447262	-11.179876	18.207930	-11.822295	78.207569	29.042745	25.499156	-3.099608	-3.167154	25.782920	0.958080	76.796441	29.192001	64.168061	-0.154188	-3.158799
3.644068	-2.870992	-6.001171	71.891210	0.192804	0.889618	0.538337	13.249408	4.281411	-3.154609	16.341779	0.285218	43.262214	9.639546	0.000000	7.893285	-1.571837	-0.366424	10.363813	0.180883	40.619688	2.748647	0.000000	0.598249	0.527967	0.333247	1.111008	0.702196	0.354075	0.982863	1.283698	0.354075	0.683739	1.283698	0.291591	0.555534	1.076630	0.270763	0.341839	0.817820	0.249935	4.273232	5.972465	1.853418	0.000000	0.000000	28.159511	-5.092565	-10.966593	18.235044	-11.121567	77.715744	31.212502	20.163012	-2.970274	-1.383687	25.038989	1.330121	74.697352	30.978645	64.159514	1.432424	-1.291928
3.661017	-2.700337	-5.920852	72.047561	0.192843	0.890649	0.537510	12.636097	4.493714	-2.715676	15.714956	0.274278	42.875977	8.873714	0.000000	7.665106	-1.779529	-1.103784	10.450820	0.182401	40.627931	3.649688	0.000000	0.598603	0.545610	0.267888	1.111665	0.725662	0.284630	0.983444	1.326597	0.284630	0.684143	1.326597	0.234402	0.555863	1.112609	0.217659	0.342042	0.845151	0.200916	4.275760	6.172055	1.489910	0.000000	0.000000	28.165511	-4.639541	-10.427603	18.240224	-10.556185	77.455951	33.374600	15.067536	-2.874602	0.518110	24.162188	1.403322	72.211377	32.747900	64.059670	3.177294	1.005683
3.677966	-2.524968	-5.814086	72.270981	0.192820	0.891690	0.536673	11.915375	4.697017	-2.243920	15.002088	0.261836	42.364779	7.973817	0.000000	7.438528	-1.984922	-1.816315	10.566853	0.184426	40.632102	4.596981	0.000000	0.595619	0.564225	0.197400	1.106125	0.750420	0.209737	0.978543	1.371858	0.209737	0.680733	1.371858	0.172725	0.553092	1.150568	0.160387	0.340337	0.873985	0.148050	4.254449	6.382630	1.097878	0.000000	0.000000	28.172465	-4.140241	-9.668863	18.152515	-10.181906	76.830244	35.579947	11.028161	-2.883287	2.495198	23.552602	1.249980	71.976752	34.227935	61.761853	4.985793	2.999892
3.694915	-2.373791	-5.705462	72.507654	0.192861	0.892665	0.535848	11.149190	4.875003	-1.746983	14.244505	0.248614	41.769486	7.039087	0.000000	7.234071	-2.182834	-2.614563	10.700667	0.186762	40.635382	5.674223	0.000000	0.593459	0.580303	0.126445	1.102113	0.771803	0.134347	0.974994	1.410948	0.134347	0.678265	1.410948	0.110639	0.551086	1.183353	0.102736	0.339103	0.898889	0.094833	4.239020	6.564501	0.703246	0.000000	0.000000	28.180563	-3.626317	-8.791251	18.027470	-9.950612	76.134178	37.715656	8.108891	-2.973271	4.520107	22.997630	0.853228	72.524673	35.571732	58.789204	6.804556	4.932099
3.711864	-2.246076	-5.593811	72.727468	0.192963	0.893560	0.535051	10.378212	5.011887	-1.531682	13.499399	0.235609	41.223612	6.530599	0.000000	7.035984	-2.344257	-3.271571	10.817870	0.188807	40.598480	6.560536	0.000000	0.590629	0.594229	0.065600	1.096857	0.790324	0.069700	0.970345	1.444808	0.069700	0.675030	1.444808	0.057400	0.548458	1.211751	0.053300	0.337485	0.920460	0.049200	4.218805	6.722035	0.364849	0.000000	0.000000	28.190364	-3.151381	-7.867537	17.841474	-9.856663	75.319205	39.708572	6.737508	-3.025676	6.620894	22.488643	0.294202	73.723791	36.712389	55.497179	8.590340	6.707949
3.728814	-2.139650	-5.492648	72.966935	0.193109	0.894324	0.534291	9.597467	5.142166	-1.109090	12.712957	0.221883	40.601885	5.764353	0.000000	6.884989	-2.506535	-3.985579	10.961616	0.191316	40.578754	7.560944	0.000000	0.588674	0.605773	0.009487	1.093227	0.805678	0.010080	0.967133	1.472876	0.010080	0.672796	1.472876	0.008301	0.546643	1.235292	0.007708	0.336368	0.938342	0.007115	4.204840	6.852623	0.052763	0.000000	0.000000	28.200823	-2.774276	-6.986981	17.632677	-9.863391	74.455229	41.496303	6.787599	-3.033268	8.717644	21.981710	-0.462233	74.791922	37.819558	52.467234	9.922168	8.430844
